<svg version="1.1" id="Layer_1" xmlns="http://www.w3.org/2000/svg" xmlns:xlink="http://www.w3.org/1999/xlink" x="0px" y="0px"
	 width="100%" viewBox="0 0 600 600" enable-background="new 0 0 600 600" xml:space="preserve">
<path fill="#FFFFFF" opacity="1.000000" stroke="none" 
	d="
M340.000000,601.000000 
	C226.666672,601.000000 113.833336,601.000000 1.000000,601.000000 
	C1.000000,401.000000 1.000000,201.000000 1.000000,1.000000 
	C201.000000,1.000000 401.000000,1.000000 601.000000,1.000000 
	C601.000000,201.000000 601.000000,401.000000 601.000000,601.000000 
	C514.166687,601.000000 427.333344,601.000000 340.000000,601.000000 
M271.796021,539.137634 
	C292.724884,542.038696 313.748962,542.130066 334.509888,538.653748 
	C425.145691,523.477356 488.624298,473.396088 524.351990,388.736633 
	C535.315247,362.758362 540.488953,335.308502 540.925781,306.100952 
	C541.499939,285.675842 539.325012,265.514587 534.630981,245.660538 
	C505.064819,120.607956 381.789825,40.981113 255.434372,65.245644 
	C130.389114,89.258575 44.513855,208.204086 63.516560,334.202576 
	C77.290649,425.532410 128.953247,488.892883 214.053482,524.679077 
	C232.198914,532.309509 251.291473,537.038757 271.796021,539.137634 
z"/>
<path fill="#F7B517" opacity="1.000000" stroke="none" 
	d="
M270.990021,538.896423 
	C251.291473,537.038757 232.198914,532.309509 214.053482,524.679077 
	C128.953247,488.892883 77.290649,425.532410 63.516560,334.202576 
	C44.513855,208.204086 130.389114,89.258575 255.434372,65.245644 
	C381.789825,40.981113 505.064819,120.607956 534.630981,245.660538 
	C539.325012,265.514587 541.499939,285.675842 540.512451,306.510010 
	C539.064026,306.110291 537.935303,305.396149 537.007263,304.478943 
	C505.411163,273.250061 473.855011,241.980759 442.246704,210.764236 
	C421.772186,190.543503 401.226318,170.395020 380.705627,150.221115 
	C380.234863,149.758331 379.682678,149.378357 378.698059,148.853333 
	C352.486328,148.820984 326.745026,148.895065 300.750641,148.902481 
	C300.329407,148.882111 300.161194,148.928436 299.534363,148.871338 
	C274.052917,148.835022 249.030106,148.902115 223.712708,148.959747 
	C223.304062,149.294296 223.189987,149.638290 222.989594,150.445236 
	C222.891403,163.833618 222.843277,176.759277 222.916260,189.684250 
	C222.924820,191.197174 223.601318,192.706299 224.020447,194.546265 
	C228.037827,199.330429 232.002945,203.785538 235.527374,208.389755 
	C217.898773,208.538864 200.710861,208.538864 183.522934,208.538864 
	C190.499405,216.388947 197.824356,223.055542 205.234207,229.626373 
	C205.896210,230.213409 207.109161,230.179153 208.064941,230.874893 
	C208.060883,264.566010 208.058136,297.815643 207.603180,331.127014 
	C205.326660,331.201569 203.500916,331.266083 201.678314,331.215881 
	C198.446655,331.126892 195.046616,331.826355 194.758972,335.309906 
	C194.578827,337.491608 196.849380,339.875641 198.179840,342.447754 
	C201.517105,345.817139 204.694824,348.907654 207.945038,352.408508 
	C208.022507,354.206421 208.027496,355.593994 207.606171,357.052887 
	C190.872375,357.638397 178.442245,367.231110 175.447495,382.217041 
	C172.776764,395.581543 177.656616,406.325653 188.190094,415.059143 
	C188.866119,415.571045 189.422409,415.796204 189.989349,416.010681 
	C190.000000,416.000000 189.980209,416.022125 190.018585,416.365234 
	C193.985916,420.799225 197.914871,424.890076 201.922379,429.426819 
	C201.951492,432.871674 201.902054,435.870636 201.395874,438.871765 
	C197.831375,438.876831 194.684586,438.577667 191.627457,438.972656 
	C188.888382,439.326569 186.248062,440.444824 183.264954,441.436523 
	C180.250183,445.529755 180.682968,448.932190 184.684998,451.991241 
	C185.226166,452.476685 185.598846,452.786926 186.132797,453.383911 
	C212.955872,480.373444 239.621155,507.072723 266.270874,533.787476 
	C267.906952,535.427551 269.419830,537.190613 270.990021,538.896423 
z"/>
<path fill="#F29B1F" opacity="1.000000" stroke="none" 
	d="
M271.393005,539.017029 
	C269.419830,537.190613 267.906952,535.427551 266.270874,533.787476 
	C239.621155,507.072723 212.955872,480.373444 186.603638,453.382690 
	C192.552399,453.142242 198.191925,453.254211 203.830734,453.225067 
	C219.745514,453.142792 235.659988,453.002533 251.790924,452.937012 
	C252.470367,452.975922 252.933441,452.962952 253.731812,453.141357 
	C270.276764,453.296082 286.486450,453.259521 303.176270,453.340820 
	C318.113922,453.372650 332.571472,453.286652 347.491089,453.277161 
	C369.532288,453.331879 391.111572,453.345093 412.690491,453.261169 
	C417.481537,453.242523 420.669586,450.334930 420.794067,446.299927 
	C420.924896,442.059113 417.622498,438.974182 412.643311,438.856750 
	C408.495575,438.758972 404.343994,438.824432 400.126953,438.365051 
	C400.059753,432.093689 400.059753,426.274841 400.059753,420.297546 
	C401.811462,419.792572 403.390686,419.362335 404.954742,418.882721 
	C424.417206,412.914215 433.306244,390.175140 422.870026,372.724213 
	C416.383881,361.878448 406.346436,357.231262 393.992859,356.509521 
	C393.977509,351.494324 393.967926,346.941528 394.405640,342.296478 
	C397.177795,342.172974 399.502655,342.140717 401.827515,342.110687 
	C405.346008,342.065247 407.735962,340.343658 407.769073,336.819702 
	C407.802002,333.316803 405.376892,331.470367 401.965149,331.219299 
	C399.319824,331.024628 396.654999,331.095276 394.001160,330.576294 
	C394.000366,304.037872 394.018097,277.971100 393.980225,251.904419 
	C393.970093,244.943481 393.790039,237.982758 393.744751,230.875244 
	C393.801544,230.728531 393.927216,230.439865 394.295105,230.347717 
	C396.225311,229.391708 398.006317,228.775375 399.312256,227.621399 
	C405.162567,222.451813 410.892456,217.145187 416.625580,211.844482 
	C417.494598,211.041016 418.151520,210.008148 419.684235,208.126846 
	C399.628815,208.126846 380.735565,208.126846 361.833954,207.652588 
	C361.825592,202.924301 361.825592,198.670273 361.825592,193.839081 
	C367.953705,193.839081 373.488739,193.839081 379.168488,193.839081 
	C379.168488,178.479630 379.168488,163.719696 379.168488,148.959763 
	C379.682678,149.378357 380.234863,149.758331 380.705627,150.221115 
	C401.226318,170.395020 421.772186,190.543503 442.246704,210.764236 
	C473.855011,241.980759 505.411163,273.250061 537.007263,304.478943 
	C537.935303,305.396149 539.064026,306.110291 540.425415,306.972961 
	C540.488953,335.308502 535.315247,362.758362 524.351990,388.736633 
	C488.624298,473.396088 425.145691,523.477356 334.509888,538.653748 
	C313.748962,542.130066 292.724884,542.038696 271.393005,539.017029 
z"/>
<path fill="#2D5977" opacity="1.000000" stroke="none" 
	d="
M208.055374,331.065277 
	C208.058136,297.815643 208.060883,264.566010 208.525055,230.795380 
	C216.777618,230.254944 224.568787,230.240601 232.359940,230.215073 
	C255.230804,230.140137 278.101685,230.060760 301.314392,230.041641 
	C302.104858,230.192795 302.553497,230.285431 303.004974,230.558151 
	C303.007812,230.738235 302.953583,231.094360 302.667908,231.085510 
	C301.946808,231.377762 301.511353,231.678864 301.054626,232.449417 
	C301.057800,242.625839 301.082275,252.332840 301.054321,262.254059 
	C301.001953,262.468292 300.937347,262.904633 300.475281,262.922668 
	C295.182556,262.945892 290.349701,263.042053 285.522095,262.923706 
	C282.422333,262.847717 280.920410,263.933990 280.939880,267.238586 
	C281.021240,281.063751 281.009705,294.889862 280.951141,308.715271 
	C280.934631,312.617157 282.887451,314.035492 286.549622,313.965851 
	C291.378601,313.873993 296.210480,313.935486 301.036255,313.945404 
	C301.031403,313.959778 301.066071,313.964783 301.048157,314.433624 
	C300.995544,319.942932 300.960785,324.983368 300.716492,330.136963 
	C300.252655,330.461060 300.080414,330.725464 299.531158,331.144531 
	C290.612000,331.260895 282.151733,331.309113 273.691711,331.284668 
	C252.465073,331.223358 231.238510,331.129181 209.925690,330.875366 
	C209.561722,330.803406 209.283966,330.904236 209.014206,331.158051 
	C209.022202,331.311035 209.082153,331.611511 208.844635,331.494019 
	C208.430527,331.371613 208.253922,331.366730 208.129944,331.283386 
	C208.182541,331.204956 208.055374,331.065277 208.055374,331.065277 
M224.998398,306.277161 
	C225.053055,313.572021 225.424973,313.953735 232.609329,313.959106 
	C241.755936,313.965942 250.904007,313.864441 260.048462,314.004669 
	C264.297394,314.069824 266.047729,312.328796 266.008514,308.067047 
	C265.889252,295.096588 265.991394,282.124298 265.953400,269.152832 
	C265.936798,263.490051 264.540466,262.093842 258.888794,262.065277 
	C249.742416,262.019073 240.592453,262.197418 231.450378,261.993866 
	C226.766098,261.889587 224.858688,263.622833 224.934479,268.410858 
	C225.129211,280.714111 224.999008,293.022491 224.998398,306.277161 
z"/>
<path fill="#2D5977" opacity="1.000000" stroke="none" 
	d="
M208.032486,356.981598 
	C208.027496,355.593994 208.022507,354.206421 208.021576,351.968445 
	C208.046310,348.215576 208.066986,345.313080 208.543320,342.327698 
	C239.707092,342.284698 270.415222,342.324554 301.091797,342.807800 
	C301.066925,350.737915 301.073639,358.224640 300.612244,365.783264 
	C285.182312,365.866119 270.220367,365.912140 255.258759,365.861450 
	C251.828568,365.849823 248.848206,366.420166 247.840164,370.217987 
	C246.844376,373.969757 248.952789,376.147858 252.020752,378.009094 
	C251.975616,378.553680 251.960510,378.771729 251.945221,379.459808 
	C251.943939,397.513916 251.974533,415.098053 251.899994,432.681793 
	C251.891083,434.782288 251.309937,436.880310 250.525757,438.978394 
	C237.371170,438.980957 224.684875,438.984650 211.718079,438.963684 
	C211.250702,438.921143 211.063843,438.903229 210.859238,438.424377 
	C210.846146,433.640869 211.054123,429.305939 210.792191,424.999573 
	C210.576019,421.445923 211.611603,419.825562 215.341782,418.822144 
	C229.365372,415.049744 239.264801,400.409729 237.890549,386.224915 
	C236.372513,370.556061 225.747528,360.149811 208.032486,356.981598 
z"/>
<path fill="#13AEBF" opacity="1.000000" stroke="none" 
	d="
M207.606171,357.052887 
	C225.747528,360.149811 236.372513,370.556061 237.890549,386.224915 
	C239.264801,400.409729 229.365372,415.049744 215.341782,418.822144 
	C211.611603,419.825562 210.576019,421.445923 210.792191,424.999573 
	C211.054123,429.305939 210.846146,433.640869 210.812592,438.708405 
	C210.806992,439.643433 210.830307,439.833496 210.796295,440.394409 
	C210.627869,443.481720 209.862549,446.002014 206.610870,445.601685 
	C205.023331,445.406219 203.311554,444.024658 202.230896,442.708099 
	C201.552673,441.881805 201.942154,440.179108 201.852615,438.869598 
	C201.902054,435.870636 201.951492,432.871674 202.004211,428.984650 
	C202.007492,425.469482 202.007492,422.842346 202.007492,420.552460 
	C197.701263,418.930450 193.840744,417.476288 189.980209,416.022125 
	C189.980209,416.022125 190.000000,416.000000 189.821350,415.767853 
	C189.118576,415.281281 188.594482,415.026855 188.070374,414.772430 
	C177.656616,406.325653 172.776764,395.581543 175.447495,382.217041 
	C178.442245,367.231110 190.872375,357.638397 207.606171,357.052887 
z"/>
<path fill="#0E8E9B" opacity="1.000000" stroke="none" 
	d="
M378.698059,148.853333 
	C379.168488,163.719696 379.168488,178.479630 379.168488,193.839081 
	C373.488739,193.839081 367.953705,193.839081 361.825592,193.839081 
	C361.825592,198.670273 361.825592,202.924301 361.460632,207.774734 
	C356.949738,208.278503 352.803741,208.185867 348.680542,207.617004 
	C348.703339,202.889954 348.703339,198.639130 348.703339,193.832901 
	C332.386902,193.832901 316.690430,193.832901 300.995453,193.444366 
	C301.015167,191.760941 301.033447,190.466080 301.492615,189.129059 
	C304.034698,189.086929 306.135864,189.086929 308.704651,189.086929 
	C308.704651,179.436508 308.704651,170.379730 308.704651,161.338120 
	C310.637329,160.748215 312.135681,160.290894 313.528564,159.865753 
	C313.528564,157.790695 313.528564,156.032135 313.528564,153.452499 
	C309.167419,153.452499 305.077332,153.452499 300.994293,153.106659 
	C300.988434,151.838486 300.975525,150.916122 300.979553,149.737885 
	C300.998901,149.311066 301.001282,149.140106 301.003693,148.969162 
	C326.745026,148.895065 352.486328,148.820984 378.698059,148.853333 
M329.675568,160.331070 
	C335.434326,160.926178 334.172638,157.407776 333.606323,154.090485 
	C327.739838,154.090485 322.172974,154.090485 316.472778,154.090485 
	C316.472778,165.823090 316.472778,177.215256 316.472778,188.688034 
	C322.538940,188.688034 328.275269,188.688034 333.988770,188.688034 
	C333.988770,186.428635 333.988770,184.511642 333.988770,181.938995 
	C330.620087,181.938995 327.580627,181.938995 324.215271,181.938995 
	C324.346710,179.026199 324.447510,176.792984 324.551788,174.482239 
	C327.570618,174.294739 330.006409,174.143463 332.554291,173.985214 
	C332.554291,171.773270 332.554291,169.893478 332.554291,167.914642 
	C329.766785,167.723816 327.326263,167.556747 324.647400,167.373367 
	C324.432953,163.798859 322.534058,159.725616 329.675568,160.331070 
M338.189545,173.496613 
	C338.189545,178.578384 338.189545,183.660156 338.189545,188.761841 
	C344.160248,188.761841 349.395844,188.761841 354.685852,188.761841 
	C354.685852,186.447235 354.685852,184.427277 354.685852,182.312210 
	C351.878174,182.138519 349.468719,181.989456 346.477661,181.804413 
	C346.477661,172.209686 346.477661,163.030197 346.477661,153.837982 
	C343.451508,153.837982 341.046631,153.837982 338.189728,153.837982 
	C338.189728,160.297516 338.189728,166.398163 338.189545,173.496613 
z"/>
<path fill="#16B0BF" opacity="1.000000" stroke="none" 
	d="
M301.051727,189.171204 
	C301.033447,190.466080 301.015167,191.760941 300.532227,193.518982 
	C284.672729,193.982162 269.277893,193.982162 253.351456,193.982162 
	C253.351456,199.086655 253.351456,203.695740 252.882645,208.426727 
	C248.346283,208.469482 244.278717,208.390335 240.201233,207.901993 
	C240.191299,203.124329 240.191299,198.755859 240.191299,194.217194 
	C234.382294,194.217194 229.175232,194.217194 223.968170,194.217194 
	C223.601318,192.706299 222.924820,191.197174 222.916260,189.684250 
	C222.843277,176.759277 222.891403,163.833618 223.199829,150.333435 
	C223.750381,149.549713 223.920685,149.286560 224.007294,148.969208 
	C249.030106,148.902115 274.052917,148.835022 299.637390,149.091736 
	C300.388489,149.694214 300.643005,149.886963 300.962616,149.993774 
	C300.975525,150.916122 300.988434,151.838486 300.968445,153.224731 
	C300.935547,153.688614 300.950775,153.928864 300.515289,153.858780 
	C298.489105,153.864624 296.898407,153.940552 295.228912,154.020233 
	C295.228912,156.251343 295.228912,158.026764 295.228912,160.274506 
	C296.901489,160.274506 298.358368,160.274506 299.935150,160.712845 
	C300.110077,164.949402 300.093048,168.750351 300.237274,172.545166 
	C300.448059,178.089493 300.774536,183.629410 301.051727,189.171204 
M292.666718,173.397888 
	C292.665314,170.235352 292.750702,167.069916 292.644989,163.910873 
	C292.405090,156.741760 288.993164,153.182938 282.369873,153.048828 
	C275.777985,152.915375 271.857239,156.439484 271.504303,163.327972 
	C271.232117,168.639923 271.241364,173.986679 271.495941,179.300201 
	C271.830200,186.276733 275.635986,189.775955 282.267334,189.702011 
	C288.566132,189.631790 292.129547,186.095093 292.618652,179.339722 
	C292.738586,177.683350 292.655975,176.012314 292.666718,173.397888 
M259.876434,158.536682 
	C259.876556,160.032150 259.772400,161.536362 259.897125,163.021362 
	C260.214905,166.804733 258.654083,167.712311 254.797180,166.123917 
	C254.797180,162.102600 254.797180,158.044983 254.797180,154.025024 
	C251.980652,154.025024 249.715393,154.025024 247.352386,154.025024 
	C247.352386,165.806656 247.352386,177.309509 247.352386,188.744019 
	C250.026291,188.744019 252.292236,188.744019 255.104523,188.744019 
	C255.104523,183.749207 255.104523,179.017365 255.104523,174.487305 
	C259.079071,173.158386 260.098877,174.617264 259.919861,177.923080 
	C259.725922,181.504074 259.875916,185.103699 259.875916,188.614075 
	C262.952515,188.614075 265.324249,188.614075 267.592346,188.614075 
	C267.592346,176.819901 267.592346,165.435806 267.592346,153.588745 
	C264.618927,154.888687 259.628967,150.763885 259.876434,158.536682 
z"/>
<path fill="#EFEFCD" opacity="1.000000" stroke="none" 
	d="
M240.211166,208.311188 
	C244.278717,208.390335 248.346283,208.469482 253.302795,208.559814 
	C269.795074,208.643951 285.398407,208.716858 301.010010,209.271439 
	C301.003021,216.496445 300.987793,223.239777 300.972534,229.983124 
	C278.101685,230.060760 255.230804,230.140137 232.359940,230.215073 
	C224.568787,230.240601 216.777618,230.254944 208.526337,230.353912 
	C207.109161,230.179153 205.896210,230.213409 205.234207,229.626373 
	C197.824356,223.055542 190.499405,216.388947 183.522934,208.538864 
	C200.710861,208.538864 217.898773,208.538864 235.935654,208.539948 
	C237.926788,208.464432 239.068985,208.387817 240.211166,208.311188 
z"/>
<path fill="#F0EFCC" opacity="1.000000" stroke="none" 
	d="
M301.123352,342.364410 
	C270.415222,342.324554 239.707092,342.284698 208.094940,342.230774 
	C204.134064,342.200806 201.077179,342.184845 198.020309,342.168884 
	C196.849380,339.875641 194.578827,337.491608 194.758972,335.309906 
	C195.046616,331.826355 198.446655,331.126892 201.678314,331.215881 
	C203.500916,331.266083 205.326660,331.201569 207.603180,331.127014 
	C208.055374,331.065277 208.182541,331.204956 208.132278,331.481262 
	C208.415390,331.708893 208.748779,331.660217 209.082153,331.611511 
	C209.082153,331.611511 209.022202,331.311035 209.262451,331.242188 
	C209.672455,331.131592 209.842194,331.089905 210.011932,331.048157 
	C231.238510,331.129181 252.465073,331.223358 273.691711,331.284668 
	C282.151733,331.309113 290.612000,331.260895 299.792877,331.259888 
	C300.680817,331.365723 300.848053,331.457397 300.915192,331.686951 
	C300.815125,331.824799 300.725769,332.153564 300.609619,332.248901 
	C300.429291,332.686279 300.588806,332.897095 300.981689,333.429382 
	C301.007599,336.600952 301.023834,339.319885 301.068848,342.118164 
	C301.097565,342.197540 301.123352,342.364410 301.123352,342.364410 
z"/>
<path fill="#143144" opacity="1.000000" stroke="none" 
	d="
M201.395874,438.871765 
	C201.942154,440.179108 201.552673,441.881805 202.230896,442.708099 
	C203.311554,444.024658 205.023331,445.406219 206.610870,445.601685 
	C209.862549,446.002014 210.627869,443.481720 211.043518,440.290100 
	C211.564926,439.539398 211.781738,439.263855 211.998566,438.988312 
	C224.684875,438.984650 237.371170,438.980957 250.694427,439.210388 
	C251.885025,438.965820 252.438675,438.488190 253.240784,438.005707 
	C253.489227,438.000854 253.985611,437.975403 253.985611,437.975403 
	C253.985611,437.975403 254.482574,437.983215 254.528534,438.426086 
	C254.472900,442.253937 254.371307,445.638916 253.838287,449.030731 
	C252.796097,450.320099 252.185349,451.602631 251.574585,452.885132 
	C235.659988,453.002533 219.745514,453.142792 203.830734,453.225067 
	C198.191925,453.254211 192.552399,453.142242 186.442352,453.095947 
	C185.598846,452.786926 185.226166,452.476685 184.804504,451.521301 
	C184.358383,447.659393 183.961258,444.442627 183.564148,441.225861 
	C186.248062,440.444824 188.888382,439.326569 191.627457,438.972656 
	C194.684586,438.577667 197.831375,438.876831 201.395874,438.871765 
z"/>
<path fill="#F29B1F" opacity="1.000000" stroke="none" 
	d="
M240.201233,207.902008 
	C239.068985,208.387817 237.926788,208.464432 236.376343,208.390839 
	C232.002945,203.785538 228.037827,199.330429 224.020447,194.546265 
	C229.175232,194.217194 234.382294,194.217194 240.191299,194.217194 
	C240.191299,198.755859 240.191299,203.124329 240.201233,207.902008 
z"/>
<path fill="#F09B20" opacity="1.000000" stroke="none" 
	d="
M190.018585,416.365234 
	C193.840744,417.476288 197.701263,418.930450 202.007492,420.552460 
	C202.007492,422.842346 202.007492,425.469482 201.925659,428.538757 
	C197.914871,424.890076 193.985916,420.799225 190.018585,416.365234 
z"/>
<path fill="#F09B20" opacity="1.000000" stroke="none" 
	d="
M198.179840,342.447754 
	C201.077179,342.184845 204.134064,342.200806 207.639313,342.313660 
	C208.066986,345.313080 208.046310,348.215576 207.949081,351.558105 
	C204.694824,348.907654 201.517105,345.817139 198.179840,342.447754 
z"/>
<path fill="#1F3641" opacity="1.000000" stroke="none" 
	d="
M183.264954,441.436523 
	C183.961258,444.442627 184.358383,447.659393 184.635986,451.346100 
	C180.682968,448.932190 180.250183,445.529755 183.264954,441.436523 
z"/>
<path fill="#F09B20" opacity="1.000000" stroke="none" 
	d="
M188.190094,415.059143 
	C188.594482,415.026855 189.118576,415.281281 189.810699,415.778534 
	C189.422409,415.796204 188.866119,415.571045 188.190094,415.059143 
z"/>
<path fill="#04AFC9" opacity="1.000000" stroke="none" 
	d="
M300.979553,149.737885 
	C300.643005,149.886963 300.388489,149.694214 300.096008,149.195145 
	C300.161194,148.928436 300.329407,148.882111 300.750641,148.902481 
	C301.001282,149.140106 300.998901,149.311066 300.979553,149.737885 
z"/>
<path fill="#04AFC9" opacity="1.000000" stroke="none" 
	d="
M223.712708,148.959747 
	C223.920685,149.286560 223.750381,149.549713 223.286133,149.870483 
	C223.189987,149.638290 223.304062,149.294296 223.712708,148.959747 
z"/>
<path fill="#173343" opacity="1.000000" stroke="none" 
	d="
M301.106720,262.039825 
	C301.082275,252.332840 301.057800,242.625839 301.331268,232.436310 
	C302.070648,231.667282 302.512115,231.380829 302.953583,231.094360 
	C302.953583,231.094360 303.007812,230.738235 303.473114,230.500153 
	C315.221375,230.252380 326.504486,230.206238 337.787292,230.241348 
	C355.865051,230.297607 373.942688,230.407700 392.054718,230.701096 
	C392.622070,230.945419 393.155029,230.983673 393.687988,231.021942 
	C393.790039,237.982758 393.970093,244.943481 393.980225,251.904419 
	C394.018097,277.971100 394.000366,304.037872 393.936523,330.634033 
	C393.869537,331.163452 393.961761,331.310760 393.688293,331.339661 
	C393.249237,331.447205 393.083649,331.525818 392.950500,331.457764 
	C392.982941,331.311035 392.995575,331.010803 392.902771,330.842407 
	C392.536926,330.796265 392.263916,330.918549 391.531982,331.142517 
	C378.297974,331.258972 365.522766,331.314941 352.747864,331.278351 
	C335.833405,331.229919 318.919159,331.109100 301.909302,330.809418 
	C301.641998,330.333008 301.409332,330.139954 301.068298,330.016937 
	C301.020782,330.013611 300.926056,330.023834 300.926056,330.023834 
	C300.960785,324.983368 300.995544,319.942932 301.509033,314.443604 
	C305.985046,313.988190 309.982391,314.005432 313.979614,313.991974 
	C320.211365,313.970978 320.992523,313.234161 321.002258,307.182648 
	C321.022644,294.524567 321.015930,281.866425 321.004333,269.208313 
	C320.999084,263.441803 319.960785,262.270782 314.096344,262.046326 
	C309.772705,261.880798 305.437042,262.030548 301.106720,262.039825 
M377.002350,307.211792 
	C377.002228,294.244629 377.095612,281.275970 376.891418,268.312012 
	C376.863892,266.562073 375.401794,263.360443 374.500153,263.322876 
	C363.456543,262.862762 352.393250,262.893127 341.335785,262.740692 
	C336.801208,262.678192 335.929565,265.320343 335.963196,269.192139 
	C336.074371,281.992065 336.161957,294.796509 335.926514,307.593079 
	C335.834473,312.597137 338.301178,314.006805 342.609283,313.998535 
	C352.085266,313.980347 361.562500,313.903534 371.036743,314.034088 
	C375.241455,314.092041 377.307190,312.422546 377.002350,307.211792 
z"/>
<path fill="#173243" opacity="1.000000" stroke="none" 
	d="
M301.080322,365.711334 
	C301.073639,358.224640 301.066925,350.737915 301.091797,342.807800 
	C301.123352,342.364410 301.097565,342.197540 301.529297,342.191162 
	C332.626831,342.252777 363.292572,342.320740 393.958344,342.388702 
	C393.967926,346.941528 393.977509,351.494324 393.602600,356.565430 
	C391.596191,357.419037 389.962372,357.705658 388.354156,358.097260 
	C371.769501,362.135529 361.148376,378.954834 365.041107,395.342316 
	C367.969727,407.671204 375.595520,415.653809 387.858490,419.264008 
	C389.380798,419.712158 391.568970,421.446594 391.634857,422.681702 
	C391.924988,428.123627 391.550354,433.601013 390.999390,439.041199 
	C379.112213,439.009949 367.637970,438.822906 356.174377,439.090393 
	C351.959686,439.188721 350.872894,437.826202 350.903870,433.734711 
	C351.046234,414.954163 350.870880,396.171234 351.061676,377.192078 
	C352.255066,374.584045 354.299652,371.902832 353.795715,369.846008 
	C353.377106,368.137360 349.978973,366.074005 347.868530,366.037720 
	C332.253815,365.769165 316.631042,365.968903 301.038635,365.946289 
	C301.066467,365.871094 301.080322,365.711334 301.080322,365.711334 
z"/>
<path fill="#0C8D9A" opacity="1.000000" stroke="none" 
	d="
M391.416565,439.065552 
	C391.550354,433.601013 391.924988,428.123627 391.634857,422.681702 
	C391.568970,421.446594 389.380798,419.712158 387.858490,419.264008 
	C375.595520,415.653809 367.969727,407.671204 365.041107,395.342316 
	C361.148376,378.954834 371.769501,362.135529 388.354156,358.097260 
	C389.962372,357.705658 391.596191,357.419037 393.608337,357.027771 
	C406.346436,357.231262 416.383881,361.878448 422.870026,372.724213 
	C433.306244,390.175140 424.417206,412.914215 404.954742,418.882721 
	C403.390686,419.362335 401.811462,419.792572 400.059753,420.297546 
	C400.059753,426.274841 400.059753,432.093689 400.059021,438.780151 
	C399.726410,444.938477 396.901367,447.512451 393.714172,445.093170 
	C392.260681,443.989899 392.141144,441.129181 391.416565,439.065552 
z"/>
<path fill="#DACEA7" opacity="1.000000" stroke="none" 
	d="
M392.020355,230.495026 
	C373.942688,230.407700 355.865051,230.297607 337.787292,230.241348 
	C326.504486,230.206238 315.221375,230.252380 303.470276,230.320068 
	C302.553497,230.285431 302.104858,230.192795 301.314392,230.041626 
	C300.987793,223.239777 301.003021,216.496445 301.363525,209.076935 
	C317.358459,208.298264 333.008118,208.195755 348.657776,208.093246 
	C352.803741,208.185867 356.949738,208.278503 361.468994,208.248993 
	C380.735565,208.126846 399.628815,208.126846 419.684235,208.126846 
	C418.151520,210.008148 417.494598,211.041016 416.625580,211.844482 
	C410.892456,217.145187 405.162567,222.451813 399.312256,227.621399 
	C398.006317,228.775375 396.225311,229.391708 393.975037,230.294617 
	C392.864807,230.387451 392.442566,230.441238 392.020355,230.495026 
z"/>
<path fill="#13262D" opacity="1.000000" stroke="none" 
	d="
M390.999390,439.041199 
	C392.141144,441.129181 392.260681,443.989899 393.714172,445.093170 
	C396.901367,447.512451 399.726410,444.938477 400.126190,439.232666 
	C404.343994,438.824432 408.495575,438.758972 412.643311,438.856750 
	C417.622498,438.974182 420.924896,442.059113 420.794067,446.299927 
	C420.669586,450.334930 417.481537,453.242523 412.690491,453.261169 
	C391.111572,453.345093 369.532288,453.331879 347.479309,452.859497 
	C346.969818,451.810028 346.934174,451.254761 347.032990,450.267822 
	C347.225861,425.889648 347.284271,401.943115 347.685669,377.914429 
	C348.955658,377.684540 349.882599,377.536835 350.809570,377.389160 
	C350.870880,396.171234 351.046234,414.954163 350.903870,433.734711 
	C350.872894,437.826202 351.959686,439.188721 356.174377,439.090393 
	C367.637970,438.822906 379.112213,439.009949 390.999390,439.041199 
z"/>
<path fill="#DACFAC" opacity="1.000000" stroke="none" 
	d="
M394.405640,342.296478 
	C363.292572,342.320740 332.626831,342.252777 301.500580,342.111816 
	C301.023834,339.319885 301.007599,336.600952 300.995819,333.439636 
	C301.000275,332.997223 301.031891,333.009644 301.190979,332.918976 
	C301.217499,332.592285 301.084930,332.356293 300.895264,332.125549 
	C300.838165,332.130859 300.725769,332.153564 300.725769,332.153564 
	C300.725769,332.153564 300.815125,331.824799 300.929749,331.536987 
	C301.044342,331.249176 301.004150,330.950562 301.249207,331.041870 
	C301.664490,331.095245 301.834656,331.057312 302.004822,331.019409 
	C318.919159,331.109100 335.833405,331.229919 352.747864,331.278351 
	C365.522766,331.314941 378.297974,331.258972 391.785309,331.208008 
	C392.663574,331.118103 392.829590,331.064453 392.995575,331.010803 
	C392.995575,331.010803 392.982941,331.311035 393.026550,331.644104 
	C393.367340,331.755066 393.664551,331.532898 393.961761,331.310760 
	C393.961761,331.310760 393.869537,331.163452 393.934204,331.105713 
	C396.654999,331.095276 399.319824,331.024628 401.965149,331.219299 
	C405.376892,331.470367 407.802002,333.316803 407.769073,336.819702 
	C407.735962,340.343658 405.346008,342.065247 401.827515,342.110687 
	C399.502655,342.140717 397.177795,342.172974 394.405640,342.296478 
z"/>
<path fill="#143144" opacity="1.000000" stroke="none" 
	d="
M302.696136,453.222961 
	C286.486450,453.259521 270.276764,453.296082 253.930725,452.572693 
	C253.947723,451.037659 254.101074,450.262573 254.627747,449.771942 
	C269.538177,450.056366 284.075317,450.056366 299.131165,450.056366 
	C299.131165,426.406250 299.131165,402.709106 299.520416,379.106262 
	C300.278015,380.880768 300.961761,382.559937 300.967072,384.241302 
	C301.038086,406.805267 301.014435,429.369507 301.098389,452.140564 
	C301.687073,452.639282 302.191620,452.931122 302.696136,453.222961 
z"/>
<path fill="#001B2E" opacity="1.000000" stroke="none" 
	d="
M303.176270,453.340820 
	C302.191620,452.931122 301.687073,452.639282 301.455872,452.100525 
	C302.224640,451.381073 302.720123,450.908508 303.665070,450.495117 
	C318.375885,450.602661 332.637207,450.651062 346.898560,450.699463 
	C346.934174,451.254761 346.969818,451.810028 347.017212,452.782990 
	C332.571472,453.286652 318.113922,453.372650 303.176270,453.340820 
z"/>
<path fill="#1F3641" opacity="1.000000" stroke="none" 
	d="
M254.254425,449.487518 
	C254.101074,450.262573 253.947723,451.037659 253.595444,452.381348 
	C252.933441,452.962952 252.470367,452.975922 251.790939,452.937012 
	C252.185349,451.602631 252.796097,450.320099 253.903076,449.148865 
	C254.399323,449.260132 254.254425,449.487518 254.254425,449.487518 
z"/>
<path fill="#0A293D" opacity="1.000000" stroke="none" 
	d="
M392.054718,230.701096 
	C392.442566,230.441238 392.864807,230.387451 393.607117,230.386765 
	C393.927216,230.439865 393.801544,230.728531 393.744781,230.875244 
	C393.155029,230.983673 392.622070,230.945419 392.054718,230.701096 
z"/>
<path fill="#183749" opacity="1.000000" stroke="none" 
	d="
M224.998535,305.802979 
	C224.999008,293.022491 225.129211,280.714111 224.934479,268.410858 
	C224.858688,263.622833 226.766098,261.889587 231.450378,261.993866 
	C240.592453,262.197418 249.742416,262.019073 258.888794,262.065277 
	C264.540466,262.093842 265.936798,263.490051 265.953400,269.152832 
	C265.991394,282.124298 265.889252,295.096588 266.008514,308.067047 
	C266.047729,312.328796 264.297394,314.069824 260.048462,314.004669 
	C250.904007,313.864441 241.755936,313.965942 232.609329,313.959106 
	C225.424973,313.953735 225.053055,313.572021 224.998535,305.802979 
M228.037338,286.500122 
	C228.037338,294.401855 228.037338,302.303589 228.037338,310.675751 
	C239.271576,310.675751 249.720795,310.768768 260.161224,310.508636 
	C261.047455,310.486542 262.587677,308.121704 262.616028,306.818970 
	C262.825653,297.176758 262.728882,287.527863 262.728546,277.881073 
	C262.728424,273.959381 262.728546,270.037720 262.728546,266.183838 
	C250.757935,266.183838 239.562180,266.183838 228.037384,266.183838 
	C228.037384,272.903076 228.037384,279.201721 228.037338,286.500122 
z"/>
<path fill="#0C2631" opacity="1.000000" stroke="none" 
	d="
M301.054321,262.254059 
	C305.437042,262.030548 309.772705,261.880798 314.096344,262.046326 
	C319.960785,262.270782 320.999084,263.441803 321.004333,269.208313 
	C321.015930,281.866425 321.022644,294.524567 321.002258,307.182648 
	C320.992523,313.234161 320.211365,313.970978 313.979614,313.991974 
	C309.982391,314.005432 305.985046,313.988190 301.526917,313.974762 
	C301.066071,313.964783 301.031403,313.959778 301.023010,313.552948 
	C300.977692,312.358521 300.940765,311.570923 300.960815,310.639282 
	C301.017792,310.495270 301.156738,310.218384 301.612061,310.248535 
	C307.300171,310.278717 312.532898,310.278717 317.753632,310.278717 
	C317.753632,295.026672 317.753632,280.661987 317.753632,265.921661 
	C311.962280,265.921661 306.515686,265.921661 301.058472,265.831665 
	C301.047882,265.741699 301.083618,265.564056 301.058899,265.232910 
	C301.001892,264.236084 300.969635,263.570343 300.937378,262.904633 
	C300.937347,262.904633 301.001953,262.468292 301.054321,262.254059 
z"/>
<path fill="#173343" opacity="1.000000" stroke="none" 
	d="
M300.475281,262.922668 
	C300.969635,263.570343 301.001892,264.236084 300.589813,265.301758 
	C294.878387,265.701752 289.611298,265.701752 284.180969,265.701752 
	C284.180969,280.920685 284.180969,295.459930 284.180969,310.783325 
	C289.967651,310.783325 295.435730,310.783325 300.903839,310.783325 
	C300.940765,311.570923 300.977692,312.358521 301.027863,313.538574 
	C296.210480,313.935486 291.378601,313.873993 286.549622,313.965851 
	C282.887451,314.035492 280.934631,312.617157 280.951141,308.715271 
	C281.009705,294.889862 281.021240,281.063751 280.939880,267.238586 
	C280.920410,263.933990 282.422333,262.847717 285.522095,262.923706 
	C290.349701,263.042053 295.182556,262.945892 300.475281,262.922668 
z"/>
<path fill="#0A293D" opacity="1.000000" stroke="none" 
	d="
M302.667908,231.085510 
	C302.512115,231.380829 302.070648,231.667282 301.352539,231.966858 
	C301.511353,231.678864 301.946808,231.377762 302.667908,231.085510 
z"/>
<path fill="#FDF9D3" opacity="1.000000" stroke="none" 
	d="
M208.844635,331.494019 
	C208.748779,331.660217 208.415390,331.708893 208.079681,331.559723 
	C208.253922,331.366730 208.430527,331.371613 208.844635,331.494019 
z"/>
<path fill="#1E4E72" opacity="1.000000" stroke="none" 
	d="
M209.925690,330.875366 
	C209.842194,331.089905 209.672455,331.131592 209.254456,331.089172 
	C209.283966,330.904236 209.561722,330.803406 209.925690,330.875366 
z"/>
<path fill="#1E4E72" opacity="1.000000" stroke="none" 
	d="
M301.029785,331.399109 
	C300.848053,331.457397 300.680817,331.365723 300.251892,331.158691 
	C300.080414,330.725464 300.252655,330.461060 300.716492,330.136963 
	C300.926056,330.023834 301.020782,330.013611 301.027527,330.247894 
	C301.034271,330.482178 301.004150,330.950562 301.004150,330.950562 
	C301.004150,330.950562 301.044342,331.249176 301.029785,331.399109 
z"/>
<path fill="#EFEFCE" opacity="1.000000" stroke="none" 
	d="
M252.050781,377.682556 
	C248.952789,376.147858 246.844376,373.969757 247.840164,370.217987 
	C248.848206,366.420166 251.828568,365.849823 255.258759,365.861450 
	C270.220367,365.912140 285.182312,365.866119 300.612244,365.783264 
	C301.080322,365.711334 301.066467,365.871094 301.038696,366.396973 
	C301.001221,370.442108 300.991486,373.961395 300.634583,377.560913 
	C299.828613,377.750916 299.369781,377.860687 298.454041,377.885925 
	C283.522339,377.851654 269.047546,377.901947 254.261200,377.887390 
	C253.316681,377.775879 252.683731,377.729218 252.050781,377.682556 
z"/>
<path fill="#072847" opacity="1.000000" stroke="none" 
	d="
M252.020752,378.009094 
	C252.683731,377.729218 253.316681,377.775879 254.263245,378.362610 
	C254.545425,398.596222 254.514008,418.289703 254.482574,437.983215 
	C254.482574,437.983215 253.985611,437.975403 253.985611,437.975403 
	C253.985611,437.975403 253.489227,438.000854 253.241684,437.535889 
	C252.994141,419.426270 253.022995,401.781525 252.948380,384.137207 
	C252.941116,382.420013 252.294983,380.705505 251.945404,378.989746 
	C251.960510,378.771729 251.975616,378.553680 252.020752,378.009094 
z"/>
<path fill="#1F3641" opacity="1.000000" stroke="none" 
	d="
M251.945221,379.459808 
	C252.294983,380.705505 252.941116,382.420013 252.948380,384.137207 
	C253.022995,401.781525 252.994141,419.426270 252.993240,437.540710 
	C252.438675,438.488190 251.885025,438.965820 251.162704,439.211487 
	C251.309937,436.880310 251.891083,434.782288 251.899994,432.681793 
	C251.974533,415.098053 251.943939,397.513916 251.945221,379.459808 
z"/>
<path fill="#1F3641" opacity="1.000000" stroke="none" 
	d="
M211.718063,438.963684 
	C211.781738,439.263855 211.564926,439.539398 211.100861,439.919281 
	C210.830307,439.833496 210.806992,439.643433 210.830322,439.169312 
	C211.063843,438.903229 211.250702,438.921143 211.718063,438.963684 
z"/>
<path fill="#F09B20" opacity="1.000000" stroke="none" 
	d="
M348.680542,207.617004 
	C333.008118,208.195755 317.358459,208.298264 301.355255,208.595276 
	C285.398407,208.716858 269.795074,208.643951 253.771606,208.437927 
	C253.351456,203.695740 253.351456,199.086655 253.351456,193.982162 
	C269.277893,193.982162 284.672729,193.982162 300.530762,193.907532 
	C316.690430,193.832901 332.386902,193.832901 348.703339,193.832901 
	C348.703339,198.639130 348.703339,202.889954 348.680542,207.617004 
z"/>
<path fill="#D6CEAC" opacity="1.000000" stroke="none" 
	d="
M329.226929,160.331696 
	C322.534058,159.725616 324.432953,163.798859 324.647400,167.373367 
	C327.326263,167.556747 329.766785,167.723816 332.554291,167.914642 
	C332.554291,169.893478 332.554291,171.773270 332.554291,173.985214 
	C330.006409,174.143463 327.570618,174.294739 324.551788,174.482239 
	C324.447510,176.792984 324.346710,179.026199 324.215271,181.938995 
	C327.580627,181.938995 330.620087,181.938995 333.988770,181.938995 
	C333.988770,184.511642 333.988770,186.428635 333.988770,188.688034 
	C328.275269,188.688034 322.538940,188.688034 316.472778,188.688034 
	C316.472778,177.215256 316.472778,165.823090 316.472778,154.090485 
	C322.172974,154.090485 327.739838,154.090485 333.606323,154.090485 
	C334.172638,157.407776 335.434326,160.926178 329.226929,160.331696 
z"/>
<path fill="#CCCBAB" opacity="1.000000" stroke="none" 
	d="
M338.189636,172.997711 
	C338.189728,166.398163 338.189728,160.297516 338.189728,153.837982 
	C341.046631,153.837982 343.451508,153.837982 346.477661,153.837982 
	C346.477661,163.030197 346.477661,172.209686 346.477661,181.804413 
	C349.468719,181.989456 351.878174,182.138519 354.685852,182.312210 
	C354.685852,184.427277 354.685852,186.447235 354.685852,188.761841 
	C349.395844,188.761841 344.160248,188.761841 338.189545,188.761841 
	C338.189545,183.660156 338.189545,178.578384 338.189636,172.997711 
z"/>
<path fill="#CDCEAE" opacity="1.000000" stroke="none" 
	d="
M301.492615,189.129059 
	C300.774536,183.629410 300.448059,178.089493 300.237274,172.545166 
	C300.093048,168.750351 300.110077,164.949402 300.243164,160.434235 
	C300.604492,157.787827 300.777618,155.858337 300.950775,153.928864 
	C300.950775,153.928864 300.935547,153.688614 300.961395,153.570557 
	C305.077332,153.452499 309.167419,153.452499 313.528564,153.452499 
	C313.528564,156.032135 313.528564,157.790695 313.528564,159.865753 
	C312.135681,160.290894 310.637329,160.748215 308.704651,161.338120 
	C308.704651,170.379730 308.704651,179.436508 308.704651,189.086929 
	C306.135864,189.086929 304.034698,189.086929 301.492615,189.129059 
z"/>
<path fill="#E6ECCD" opacity="1.000000" stroke="none" 
	d="
M292.666626,173.872955 
	C292.655975,176.012314 292.738586,177.683350 292.618652,179.339722 
	C292.129547,186.095093 288.566132,189.631790 282.267334,189.702011 
	C275.635986,189.775955 271.830200,186.276733 271.495941,179.300201 
	C271.241364,173.986679 271.232117,168.639923 271.504303,163.327972 
	C271.857239,156.439484 275.777985,152.915375 282.369873,153.048828 
	C288.993164,153.182938 292.405090,156.741760 292.644989,163.910873 
	C292.750702,167.069916 292.665314,170.235352 292.666626,173.872955 
M281.575836,183.063904 
	C282.374176,182.628387 283.855316,182.212341 283.868378,181.754440 
	C284.062317,174.949509 284.112122,168.138351 284.015991,161.331192 
	C284.007965,160.761459 282.685913,159.745285 282.014648,159.777496 
	C281.309204,159.811325 280.055542,160.866608 280.065155,161.458954 
	C280.179840,168.539673 280.485260,175.617279 281.575836,183.063904 
z"/>
<path fill="#EDEFCD" opacity="1.000000" stroke="none" 
	d="
M259.876221,158.060150 
	C259.628967,150.763885 264.618927,154.888687 267.592346,153.588745 
	C267.592346,165.435806 267.592346,176.819901 267.592346,188.614075 
	C265.324249,188.614075 262.952515,188.614075 259.875916,188.614075 
	C259.875916,185.103699 259.725922,181.504074 259.919861,177.923080 
	C260.098877,174.617264 259.079071,173.158386 255.104523,174.487305 
	C255.104523,179.017365 255.104523,183.749207 255.104523,188.744019 
	C252.292236,188.744019 250.026291,188.744019 247.352386,188.744019 
	C247.352386,177.309509 247.352386,165.806656 247.352386,154.025024 
	C249.715393,154.025024 251.980652,154.025024 254.797180,154.025024 
	C254.797180,158.044983 254.797180,162.102600 254.797180,166.123917 
	C258.654083,167.712311 260.214905,166.804733 259.897125,163.021362 
	C259.772400,161.536362 259.876556,160.032150 259.876221,158.060150 
z"/>
<path fill="#EFEFCD" opacity="1.000000" stroke="none" 
	d="
M300.515289,153.858780 
	C300.777618,155.858337 300.604492,157.787827 300.123291,159.995911 
	C298.358368,160.274506 296.901489,160.274506 295.228912,160.274506 
	C295.228912,158.026764 295.228912,156.251343 295.228912,154.020233 
	C296.898407,153.940552 298.489105,153.864624 300.515289,153.858780 
z"/>
<path fill="#FDF9D3" opacity="1.000000" stroke="none" 
	d="
M300.986145,332.986969 
	C300.588806,332.897095 300.429291,332.686279 300.609619,332.248901 
	C300.725769,332.153564 300.838165,332.130859 300.916870,332.347412 
	C300.995605,332.563965 301.031891,333.009644 301.031891,333.009644 
	C301.031891,333.009644 301.000275,332.997223 300.986145,332.986969 
z"/>
<path fill="#F5B416" opacity="1.000000" stroke="none" 
	d="
M254.528534,438.426086 
	C254.514008,418.289703 254.545425,398.596222 254.574814,378.427490 
	C269.047546,377.901947 283.522339,377.851654 298.470215,378.154510 
	C299.005920,378.675751 299.068542,378.843842 299.131165,379.011932 
	C299.131165,402.709106 299.131165,426.406250 299.131165,450.056366 
	C284.075317,450.056366 269.538177,450.056366 254.627747,449.771942 
	C254.254425,449.487518 254.399323,449.260132 254.334518,449.142029 
	C254.371307,445.638916 254.472900,442.253937 254.528534,438.426086 
z"/>
<path fill="#0D2530" opacity="1.000000" stroke="none" 
	d="
M377.002197,307.673279 
	C377.307190,312.422546 375.241455,314.092041 371.036743,314.034088 
	C361.562500,313.903534 352.085266,313.980347 342.609283,313.998535 
	C338.301178,314.006805 335.834473,312.597137 335.926514,307.593079 
	C336.161957,294.796509 336.074371,281.992065 335.963196,269.192139 
	C335.929565,265.320343 336.801208,262.678192 341.335785,262.740692 
	C352.393250,262.893127 363.456543,262.862762 374.500153,263.322876 
	C375.401794,263.360443 376.863892,266.562073 376.891418,268.312012 
	C377.095612,281.275970 377.002228,294.244629 377.002197,307.673279 
M340.011139,266.218201 
	C339.827026,266.493195 339.483459,266.767181 339.481659,267.043396 
	C339.393890,280.703278 339.261292,294.364319 339.437744,308.021332 
	C339.449707,308.948517 341.790039,310.601746 343.080383,310.634796 
	C352.073730,310.865112 361.076813,310.676636 370.074341,310.800751 
	C373.194153,310.843781 374.072144,309.537262 374.006500,306.601624 
	C373.853790,299.772339 373.959930,292.937225 373.960449,286.104492 
	C373.960938,279.494904 373.960541,272.885315 373.960541,265.887543 
	C362.473114,265.887543 351.675171,265.887543 340.011139,266.218201 
z"/>
<path fill="#E7D9B4" opacity="1.000000" stroke="none" 
	d="
M393.688293,331.339661 
	C393.664551,331.532898 393.367340,331.755066 392.994080,331.790833 
	C393.083649,331.525818 393.249237,331.447205 393.688293,331.339661 
z"/>
<path fill="#0A293D" opacity="1.000000" stroke="none" 
	d="
M301.249207,331.041870 
	C301.004150,330.950562 301.034271,330.482178 301.075012,330.251221 
	C301.409332,330.139954 301.641998,330.333008 301.909302,330.809448 
	C301.834656,331.057312 301.664490,331.095245 301.249207,331.041870 
z"/>
<path fill="#0A293D" opacity="1.000000" stroke="none" 
	d="
M392.902771,330.842407 
	C392.829590,331.064453 392.663574,331.118103 392.244263,331.106293 
	C392.263916,330.918549 392.536926,330.796265 392.902771,330.842407 
z"/>
<path fill="#DACEA6" opacity="1.000000" stroke="none" 
	d="
M300.981750,377.480682 
	C300.991486,373.961395 301.001221,370.442108 301.010864,366.472137 
	C316.631042,365.968903 332.253815,365.769165 347.868530,366.037720 
	C349.978973,366.074005 353.377106,368.137360 353.795715,369.846008 
	C354.299652,371.902832 352.255066,374.584045 351.061676,377.192078 
	C349.882599,377.536835 348.955658,377.684540 347.192383,377.862671 
	C331.945618,377.915222 317.535217,377.937286 302.777496,377.838593 
	C301.947388,377.638763 301.464600,377.559723 300.981750,377.480682 
z"/>
<path fill="#F39B1F" opacity="1.000000" stroke="none" 
	d="
M303.124786,377.959381 
	C317.535217,377.937286 331.945618,377.915222 346.849365,377.944885 
	C347.284271,401.943115 347.225861,425.889648 347.033020,450.267822 
	C332.637207,450.651062 318.375885,450.602661 303.623474,450.069336 
	C303.129883,425.709412 303.127350,401.834381 303.124786,377.959381 
z"/>
<path fill="#E7D9B4" opacity="1.000000" stroke="none" 
	d="
M301.190979,332.918976 
	C301.031891,333.009644 300.995605,332.563965 300.973999,332.342102 
	C301.084930,332.356293 301.217499,332.592285 301.190979,332.918976 
z"/>
<path fill="#2C322D" opacity="1.000000" stroke="none" 
	d="
M302.777496,377.838593 
	C303.127350,401.834381 303.129883,425.709412 303.174011,450.010193 
	C302.720123,450.908508 302.224640,451.381073 301.371704,451.893646 
	C301.014435,429.369507 301.038086,406.805267 300.967072,384.241302 
	C300.961761,382.559937 300.278015,380.880768 299.520416,379.106262 
	C299.068542,378.843842 299.005920,378.675751 298.927124,378.239075 
	C299.369781,377.860687 299.828613,377.750916 300.634583,377.560913 
	C301.464600,377.559723 301.947388,377.638763 302.777496,377.838593 
z"/>
<path fill="#10BFC9" opacity="1.000000" stroke="none" 
	d="
M228.037354,286.000244 
	C228.037384,279.201721 228.037384,272.903076 228.037384,266.183838 
	C239.562180,266.183838 250.757935,266.183838 262.728546,266.183838 
	C262.728546,270.037720 262.728424,273.959381 262.728546,277.881073 
	C262.728882,287.527863 262.825653,297.176758 262.616028,306.818970 
	C262.587677,308.121704 261.047455,310.486542 260.161224,310.508636 
	C249.720795,310.768768 239.271576,310.675751 228.037338,310.675751 
	C228.037338,302.303589 228.037338,294.401855 228.037354,286.000244 
z"/>
<path fill="#10C3CD" opacity="1.000000" stroke="none" 
	d="
M300.960815,310.639282 
	C295.435730,310.783325 289.967651,310.783325 284.180969,310.783325 
	C284.180969,295.459930 284.180969,280.920685 284.180969,265.701752 
	C289.611298,265.701752 294.878387,265.701752 300.614563,265.632904 
	C301.083618,265.564056 301.047882,265.741699 301.040894,266.306549 
	C301.074860,281.320404 301.115814,295.769379 301.156738,310.218384 
	C301.156738,310.218384 301.017792,310.495270 300.960815,310.639282 
z"/>
<path fill="#0189A5" opacity="1.000000" stroke="none" 
	d="
M301.612061,310.248535 
	C301.115814,295.769379 301.074860,281.320404 301.051514,266.396545 
	C306.515686,265.921661 311.962280,265.921661 317.753632,265.921661 
	C317.753632,280.661987 317.753632,295.026672 317.753632,310.278717 
	C312.532898,310.278717 307.300171,310.278717 301.612061,310.248535 
z"/>
<path fill="#13AEBF" opacity="1.000000" stroke="none" 
	d="
M281.158325,182.879807 
	C280.485260,175.617279 280.179840,168.539673 280.065155,161.458954 
	C280.055542,160.866608 281.309204,159.811325 282.014648,159.777496 
	C282.685913,159.745285 284.007965,160.761459 284.015991,161.331192 
	C284.112122,168.138351 284.062317,174.949509 283.868378,181.754440 
	C283.855316,182.212341 282.374176,182.628387 281.158325,182.879807 
z"/>
<path fill="#0088A3" opacity="1.000000" stroke="none" 
	d="
M340.444214,266.052856 
	C351.675171,265.887543 362.473114,265.887543 373.960541,265.887543 
	C373.960541,272.885315 373.960938,279.494904 373.960449,286.104492 
	C373.959930,292.937225 373.853790,299.772339 374.006500,306.601624 
	C374.072144,309.537262 373.194153,310.843781 370.074341,310.800751 
	C361.076813,310.676636 352.073730,310.865112 343.080383,310.634796 
	C341.790039,310.601746 339.449707,308.948517 339.437744,308.021332 
	C339.261292,294.364319 339.393890,280.703278 339.481659,267.043396 
	C339.483459,266.767181 339.827026,266.493195 340.444214,266.052856 
z"/>
</svg>